<svg xmlns="http://www.w3.org/2000/svg" class="desktop-logo" viewBox="0 0 230 55">
  <defs/>
  <g data-name="Group 2549">
    <path fill="#ee4023" d="M115.002 37.164a14.127 14.127 0 10-14.125-14.123 14.126 14.126 0 0014.125 14.123z" class="cls-1" data-name="Path 69"/>
    <g data-name="Group 2543">
      <path fill="#ee4023" d="M114.27800035.0010003l1.43799908-.00163136.00797414 7.02899548-1.43799907.00163136z" class="cls-1" data-name="Rectangle 522"/>
    </g>
    <g data-name="Group 2544">
      <path fill="#ee4023" d="M122.44469551 8.82809697l3.43450944-6.1843044 1.25801725.69865127-3.43450944 6.1843044z" class="cls-1" data-name="Rectangle 523"/>
    </g>
    <g data-name="Group 2545">
      <path fill="#ee4023" d="M128.04723307 13.7312339l5.98786427-3.67943822.75337387 1.2260297-5.98786426 3.6794382z" class="cls-1" data-name="Rectangle 524"/>
    </g>
    <g data-name="Group 2546">
      <path fill="#ee4023" d="M103.14079746 3.0465643l1.25613487-.70203004 3.4189205 6.11743791-1.25613488.70203005z" class="cls-1" data-name="Rectangle 525"/>
    </g>
    <g data-name="Group 2547">
      <path fill="#ee4023" d="M95.22688894 11.87582262l.7361824-1.23642893 5.99741062 3.57091945-.73618239 1.23642892z" class="cls-1" data-name="Rectangle 526"/>
    </g>
    <g data-name="Group 2548">
      <path fill="#231f20" fill-rule="evenodd" d="M56.409 26.504c-11.45 7.391-15.737 9.5-15.737 9.5v7.256c14.668-6.95 23.662 1.914 23.662 1.914v2.485h6.868V26.582a4.024 4.024 0 00-2.229-3.659h12.31a25.945 25.945 0 00-5.341 2.155 3.391 3.391 0 00-1.486 3.314l8.395 3.487s1.026.3 1.063 1.043c.062.88-1.068 1.153-1.068 1.153s-4.836.376-7.252 2.356c-1.74 1.433-1.335 2.672-1.335 2.672v3.6c0 .306 0 .556.16.712 1.917 1.984 5.577 2.591 5.577 2.591l2.964-1.617c-3.127-.239-3.263-.955-3.31-1.563-.024-.487.485-2.053 7.033-2.389 5.863-.3 11.629 3.907 11.629 3.907v3.288h6.858v-20.91c0-1.209-.334-6.063-6.478-6.063l-5.98-.041H59.956v.958c4.459.451 4.372 3.475 4.372 3.475v14.744a20.131 20.131 0 00-11.214-4.484 43.173 43.173 0 007.278-5.171 2.3 2.3 0 00.385-2.865 17.009 17.009 0 00-4.319-5.844c-2.921-2.606-6.681-.91-6.681-.91l-3.648 1.644c-9.359-5.247-14.917-.373-14.917-.373v1.076c-14.477-9.643-24.248 2.6-24.248 2.6v3.127l9.84-.025-4.045 3.859v5.423l18.2-6.771v9.281a12.226 12.226 0 00-8.884-1.533c-3.089.685-7.8 2.5-9.132 2.562-6.061.271-6.462-4.005-6.533-6.184-.052-1.552 1.723-1.321 1.723-1.321v-2.67h-7.9a19.557 19.557 0 00-.135 4.7c.674 6.548 4.426 9.126 7.67 9.835 6.257 1.37 10.549-2.53 14.711-2.9a11.283 11.283 0 018.443 3.05v1.545h6.867V24.537a2.592 2.592 0 011.784-1.7c2.969-.541 4.2.244 4.2.244a17.266 17.266 0 00-2.141 1.39c-1.217.881-.766 2.717-.676 4.193s2.685 2.522 2.685 2.522l2.2-1.08c-2.015-.666-.806-1.927-.806-1.927s7.78-3.628 9.124-4.209a6.454 6.454 0 01.718-.281 1.044 1.044 0 011.38.564c.31.663.787 1.842.152 2.251zm-35.34 3.174s-.517.325-.8.019c-.132-.13-.048-.377.255-.667l1.575-1.447s1.38-1.29-.544-1.385-4.849-.08-4.849-.08-.91.112-.973-.3a.555.555 0 01.3-.645c.768-.5 12.307-3.139 15.5.757zm73.409 3.369s.535-1.948-3.275-3.6c-.5-.221-3.879-1.769-7.177-3.121a.828.828 0 01.174-1.566c.989-.357 6.254-1.834 6.254-1.834h4.592s3.251.015 3.251 3.2l.015 12.721a19.112 19.112 0 00-7.83-4.136z" class="cls-2" data-name="Path 70"/>
    </g>
    <path fill="#231f20" fill-rule="evenodd" d="M224.32 20.536H122.502v2.6h7.191c-7.738 2.362-6.941 6.222-6.941 6.222v6.769c.188 3.384 4.068 3 4.068 3a36.489 36.489 0 006.252-1.566 16.265 16.265 0 004.071-1.773c2.941-1.36 1.88-3.737 1.8-3.955-.641-1.576-3.1-3.614-3.1-3.614l-2.795.873.613.6c1.035.756-.879 1.791-.879 1.791l-4.464 1.412c-2.307.546-1.527-1.112-1.41-1.338.629-1.418 3.41-2.757 4.378-3.262 7.088-3.751 8.83-.657 9.644.217 5.337 5.7.225 10.143-.89 11.138a21.684 21.684 0 01-14.394 5.828c-6.955.081-8.569-3.273-8.569-3.273l.646-1.546-2.5-1.289-5.721 6.825c21.241 14.492 36.334-4.37 36.334-4.37a12.442 12.442 0 015.222 3.425v2.2h6.678V26.711c-.048-3.071-2.08-3.577-2.08-3.577h4.527c2.4.883 2.119 3.613 2.119 3.613v20.711h6.938V26.444c-.028-2.99-2.209-3.31-2.209-3.31h15.091c-1.276.847-2.6 1.863-5.909 4.358-3.3 2.778-2.772 5.971-2.772 5.971v6.577a4.828 4.828 0 001.694 3.205 29.817 29.817 0 009.854 5.363c5.167 1.516 7.816-1.54 7.816-1.54l2.386-2.567-2.454-1.327c-1.751 2.773-6.144-.214-6.144-.214s-2.757-1.631-3.935-2.34c-3.409-2.178-3.343-3.142-3.343-3.142l.031-7.512c.317-2.262 8.089-6.832 8.089-6.832h22.467a3.647 3.647 0 012.348 3.77v4.491c-3.31-2.556-5.843-1.032-5.843-1.032l-4.151 2.072s1.048-1.491 2.312-3.272c1.185-1.685-.461-2.217-4.025-3.861-4.6-2.12-7.452.1-7.452.1a55.186 55.186 0 00-5.817 3.7c-2.963 2.177-2.7 4.289-2.7 4.289v3.27c1.645 2.781 5.508 1.931 5.508 1.931l.946-1.87c-2.426-.144-1.966-1.232-1.625-1.645 0 0 9.286-5.664 10.986-6.549.253-.131.824.077.6.569-.881 1.91-4.714 6.434-4.976 7.087-1.606 4.131 1.182 5.233 1.182 5.233l11.43-5.647c2.966-1.421 3.629.735 3.629.735v11.247h6.664V26.904a3.825 3.825 0 00-2.331-3.77h4.486a3.848 3.848 0 012.379 3.785v20.83h6.55V26.895c0-2.561-1.282-6.359-5.682-6.359zM151.054 39.22a9.525 9.525 0 00-3.188-2.827s.963-9.453-9.241-13.259h10.384s2.012.506 2.045 3.6z" class="cls-2" data-name="Path 71"/>
  </g>
</svg>
